<?xml version="1.0" encoding="UTF-8" standalone="no"?>
<svg width="378px" height="423px" viewBox="0 0 378 423" version="1.1" xmlns="http://www.w3.org/2000/svg" xmlns:xlink="http://www.w3.org/1999/xlink" xmlns:sketch="http://www.bohemiancoding.com/sketch/ns">
    <!-- Generator: Sketch 3.4.4 (17249) - http://www.bohemiancoding.com/sketch -->
    <title>Artboard 1</title>
    <desc>Created with Sketch.</desc>
    <defs></defs>
    <g id="Page-1" stroke="none" stroke-width="1" fill="none" fill-rule="evenodd" sketch:type="MSPage">
        <g id="Artboard-1" sketch:type="MSArtboardGroup">
            <g id="Group" sketch:type="MSLayerGroup">
                <g id="Ace-card" transform="translate(156.802695, 195.860275) rotate(-20.000000) translate(-156.802695, -195.860275) translate(52.025024, 25.823732)">
                    <rect id="10-card" stroke="#2ECC71" stroke-width="5" fill="#FFFFFF" sketch:type="MSShapeGroup" x="-1.81986476e-12" y="4.15388967e-14" width="209.555342" height="340.073087" rx="15"></rect>
                    <g id="10-+-Heart" transform="translate(8.367661, 8.001720)" fill="#E74C3C">
                        <g id="Heart" transform="translate(-0.000000, 26.187446)" sketch:type="MSShapeGroup">
                            <path d="M4.08776734,7.27501243e-06 C6.11639352,0.00379884159 7.135438,0.971307721 8.14697752,2.90335817 C9.15851703,0.971142871 10.1775615,0.00379884159 12.2056982,7.27501243e-06 C14.4588209,-0.00411399301 16.2901969,1.74330365 16.2944388,3.90037533 C16.2998228,7.80865621 12.2234818,11.7241905 8.14697752,15.6397248 C4.07096274,11.7243554 -0.00554149731,7.80865621 5.65485361e-06,3.90037533 C0.00343183707,1.7434685 1.83464466,-0.00411399301 4.08776734,7.27501243e-06 L4.08776734,7.27501243e-06 Z" id="Shape"></path>
                        </g>
                        <text id="A" sketch:type="MSTextLayer" font-family="SF UI Text" font-size="21.8003475" font-weight="normal" sketch:alignment="middle">
                            <tspan x="0.6590062" y="21">A</tspan>
                        </text>
                    </g>
                    <rect id="Rectangle-6" stroke="#2ECC71" stroke-width="5" fill="#FFFFFF" sketch:type="MSShapeGroup" x="41.8383061" y="36.7351677" width="125.87873" height="266.966466" rx="8"></rect>
                </g>
                <g id="King-card" transform="translate(181.099180, 202.335816) rotate(-13.000000) translate(-181.099180, -202.335816) translate(76.321509, 32.299272)">
                    <rect id="10-card" stroke="#2ECC71" stroke-width="5" fill="#FFFFFF" sketch:type="MSShapeGroup" x="0" y="0" width="209.555342" height="340.073087" rx="15"></rect>
                    <g id="10-+-Heart" transform="translate(9.095284, 8.729149)" fill="#E74C3C">
                        <g id="Heart" transform="translate(0.000000, 26.187446)" sketch:type="MSShapeGroup">
                            <path d="M4.08776734,7.27501243e-06 C6.11639352,0.00379884159 7.135438,0.971307721 8.14697752,2.90335817 C9.15851703,0.971142871 10.1775615,0.00379884159 12.2056982,7.27501243e-06 C14.4588209,-0.00411399301 16.2901969,1.74330365 16.2944388,3.90037533 C16.2998228,7.80865621 12.2234818,11.7241905 8.14697752,15.6397248 C4.07096274,11.7243554 -0.00554149731,7.80865621 5.65485361e-06,3.90037533 C0.00343183707,1.7434685 1.83464466,-0.00411399301 4.08776734,7.27501243e-06 L4.08776734,7.27501243e-06 Z" id="Shape"></path>
                        </g>
                        <text id="K" sketch:type="MSTextLayer" font-family="SF UI Text" font-size="21.8003475" font-weight="normal" sketch:alignment="middle">
                            <tspan x="0.823999064" y="21">K</tspan>
                        </text>
                    </g>
                    <rect id="Rectangle-6-Copy" stroke="#2ECC71" stroke-width="5" fill="#FFFFFF" sketch:type="MSShapeGroup" x="41.8383061" y="36.7351677" width="125.87873" height="266.966466" rx="8"></rect>
                </g>
                <g id="Queen-card" transform="translate(204.567256, 211.333849) rotate(-6.000000) translate(-204.567256, -211.333849) translate(99.789585, 41.297306)">
                    <rect id="10-card" stroke="#2ECC71" stroke-width="5" fill="#FFFFFF" sketch:type="MSShapeGroup" x="-5.79047878e-12" y="-3.35965134e-13" width="209.555342" height="340.073087" rx="15"></rect>
                    <g id="10-+-Heart" transform="translate(8.731473, 7.274291)" fill="#E74C3C">
                        <g id="Heart" transform="translate(0.727623, 26.187446)" sketch:type="MSShapeGroup">
                            <path d="M4.08776734,7.27501243e-06 C6.11639352,0.00379884159 7.135438,0.971307721 8.14697752,2.90335817 C9.15851703,0.971142871 10.1775615,0.00379884159 12.2056982,7.27501243e-06 C14.4588209,-0.00411399301 16.2901969,1.74330365 16.2944388,3.90037533 C16.2998228,7.80865621 12.2234818,11.7241905 8.14697752,15.6397248 C4.07096274,11.7243554 -0.00554149731,7.80865621 5.65485361e-06,3.90037533 C0.00343183707,1.7434685 1.83464466,-0.00411399301 4.08776734,7.27501243e-06 L4.08776734,7.27501243e-06 Z" id="Shape"></path>
                        </g>
                        <text id="Q" sketch:type="MSTextLayer" font-family="SF UI Text" font-size="21.8003475" font-weight="normal" sketch:alignment="middle">
                            <tspan x="0.327481169" y="21">Q</tspan>
                        </text>
                    </g>
                    <rect id="Rectangle-6-Copy-2" stroke="#2ECC71" stroke-width="5" fill="#FFFFFF" sketch:type="MSShapeGroup" x="41.8383061" y="36.7351677" width="125.87873" height="266.966466" rx="8"></rect>
                </g>
                <g id="Jack-card" transform="translate(228.160681, 223.781282) rotate(2.000000) translate(-228.160681, -223.781282) translate(123.383010, 53.744738)">
                    <rect id="10-card" stroke="#2ECC71" stroke-width="5" fill="#FFFFFF" sketch:type="MSShapeGroup" x="-4.79782527e-12" y="2.01684863e-13" width="209.555342" height="340.073087" rx="15"></rect>
                    <g id="10-+-Heart" transform="translate(10.186718, 9.456578)" fill="#E74C3C">
                        <g id="Heart" transform="translate(0.000000, 26.187446)" sketch:type="MSShapeGroup">
                            <path d="M4.08776734,7.27501243e-06 C6.11639352,0.00379884159 7.135438,0.971307721 8.14697752,2.90335817 C9.15851703,0.971142871 10.1775615,0.00379884159 12.2056982,7.27501243e-06 C14.4588209,-0.00411399301 16.2901969,1.74330365 16.2944388,3.90037533 C16.2998228,7.80865621 12.2234818,11.7241905 8.14697752,15.6397248 C4.07096274,11.7243554 -0.00554149731,7.80865621 5.65485361e-06,3.90037533 C0.00343183707,1.7434685 1.83464466,-0.00411399301 4.08776734,7.27501243e-06 L4.08776734,7.27501243e-06 Z" id="Shape"></path>
                        </g>
                        <text id="J" sketch:type="MSTextLayer" font-family="SF UI Text" font-size="21.8003475" font-weight="normal" sketch:alignment="middle">
                            <tspan x="2.13861963" y="21">J</tspan>
                        </text>
                    </g>
                    <rect id="Rectangle-6-Copy-3" stroke="#2ECC71" stroke-width="5" fill="#FFFFFF" sketch:type="MSShapeGroup" x="41.8383061" y="36.7351677" width="125.87873" height="266.966466" rx="8"></rect>
                </g>
                <g id="10-card" transform="translate(247.605409, 238.523053) rotate(9.000000) translate(-247.605409, -238.523053) translate(142.827738, 68.486510)">
                    <rect stroke="#2ECC71" stroke-width="5" fill="#FFFFFF" sketch:type="MSShapeGroup" x="0" y="0" width="209.555342" height="340.073087" rx="15"></rect>
                    <g id="10-+-Heart" transform="translate(9.459095, 9.456578)" fill="#E74C3C">
                        <g id="Group" transform="translate(37.836381, 41.827171)" sketch:type="MSShapeGroup">
                            <g id="Heart-Copy">
                                <path d="M16.6560429,5.94175625 C18.7240793,1.98745518 20.8074591,0.00777437348 24.9538719,1.48883975e-05 C29.5602561,-0.00841933452 33.3044025,3.56769118 33.3130749,7.98216346 C33.3240822,15.9805057 24.9902291,29.0856957 16.6560426,37.0988822 C8.32285685,29.0860331 -0.0113292834,15.9805057 1.1561034e-05,7.98216346 C0.00701620024,3.56802855 3.75082908,-0.00841933452 8.35721324,1.48883975e-05 C12.5046268,0.00777437348 14.5880066,1.98779255 16.6560429,5.94175625 Z" id="Shape"></path>
                            </g>
                            <g id="Heart-Copy-2" transform="translate(0.000000, 47.282889)">
                                <path d="M16.6560429,5.94175625 C18.7240793,1.98745518 20.8074591,0.00777437348 24.9538719,1.48883975e-05 C29.5602561,-0.00841933452 33.3044025,3.56769118 33.3130749,7.98216346 C33.3240822,15.9805057 24.9902291,29.0856957 16.6560426,37.0988822 C8.32285685,29.0860331 -0.0113292834,15.9805057 1.1561034e-05,7.98216346 C0.00701620024,3.56802855 3.75082908,-0.00841933452 8.35721324,1.48883975e-05 C12.5046268,0.00777437348 14.5880066,1.98779255 16.6560429,5.94175625 Z" id="Shape"></path>
                            </g>
                            <g id="Heart-Copy-3" transform="translate(81.493744, 47.282889)">
                                <path d="M16.6560429,5.94175625 C18.7240793,1.98745518 20.8074591,0.00777437348 24.9538719,1.48883975e-05 C29.5602561,-0.00841933452 33.3044025,3.56769118 33.3130749,7.98216346 C33.3240822,15.9805057 24.9902291,29.0856957 16.6560426,37.0988822 C8.32285685,29.0860331 -0.0113292834,15.9805057 1.1561034e-05,7.98216346 C0.00701620024,3.56802855 3.75082908,-0.00841933452 8.35721324,1.48883975e-05 C12.5046268,0.00777437348 14.5880066,1.98779255 16.6560429,5.94175625 Z" id="Shape"></path>
                            </g>
                            <g id="Heart-Copy-5" transform="translate(40.746872, 23.641445)">
                                <path d="M16.6560429,5.94175625 C18.7240793,1.98745518 20.8074591,0.00777437348 24.9538719,1.48883975e-05 C29.5602561,-0.00841933452 33.3044025,3.56769118 33.3130749,7.98216346 C33.3240822,15.9805057 24.9902291,29.0856957 16.6560426,37.0988822 C8.32285685,29.0860331 -0.0113292834,15.9805057 1.15610345e-05,7.98216346 C0.00701620024,3.56802855 3.75082908,-0.00841933452 8.35721324,1.48883975e-05 C12.5046268,0.00777437348 14.5880066,1.98779255 16.6560429,5.94175625 Z" id="Shape"></path>
                            </g>
                            <g id="Heart-Copy-4" transform="translate(81.493744, 0.000000)">
                                <path d="M16.6560429,5.94175625 C18.7240793,1.98745518 20.8074591,0.00777437348 24.9538719,1.48883975e-05 C29.5602561,-0.00841933452 33.3044025,3.56769118 33.3130749,7.98216346 C33.3240822,15.9805057 24.9902291,29.0856957 16.6560426,37.0988822 C8.32285685,29.0860331 -0.0113292834,15.9805057 1.1561034e-05,7.98216346 C0.00701620024,3.56802855 3.75082908,-0.00841933452 8.35721324,1.48883975e-05 C12.5046268,0.00777437348 14.5880066,1.98779255 16.6560429,5.94175625 Z" id="Shape"></path>
                            </g>
                        </g>
                        <g id="Group-Copy" transform="translate(37.836381, 194.950989)" sketch:type="MSShapeGroup">
                            <g id="Heart-Copy">
                                <path d="M16.6560429,5.94175625 C18.7240793,1.98745518 20.8074591,0.00777437348 24.9538719,1.48883975e-05 C29.5602561,-0.00841933452 33.3044025,3.56769118 33.3130749,7.98216346 C33.3240822,15.9805057 24.9902291,29.0856957 16.6560426,37.0988822 C8.32285685,29.0860331 -0.0113292834,15.9805057 1.1561034e-05,7.98216346 C0.00701620024,3.56802855 3.75082908,-0.00841933452 8.35721324,1.48883975e-05 C12.5046268,0.00777437348 14.5880066,1.98779255 16.6560429,5.94175625 Z" id="Shape"></path>
                            </g>
                            <g id="Heart-Copy-2" transform="translate(0.000000, 47.282889)">
                                <path d="M16.6560429,5.94175625 C18.7240793,1.98745518 20.8074591,0.00777437348 24.9538719,1.48883975e-05 C29.5602561,-0.00841933452 33.3044025,3.56769118 33.3130749,7.98216346 C33.3240822,15.9805057 24.9902291,29.0856957 16.6560426,37.0988822 C8.32285685,29.0860331 -0.0113292834,15.9805057 1.1561034e-05,7.98216346 C0.00701620024,3.56802855 3.75082908,-0.00841933452 8.35721324,1.48883975e-05 C12.5046268,0.00777437348 14.5880066,1.98779255 16.6560429,5.94175625 Z" id="Shape"></path>
                            </g>
                            <g id="Heart-Copy-3" transform="translate(81.493744, 47.282889)">
                                <path d="M16.6560429,5.94175625 C18.7240793,1.98745518 20.8074591,0.00777437348 24.9538719,1.48883975e-05 C29.5602561,-0.00841933452 33.3044025,3.56769118 33.3130749,7.98216346 C33.3240822,15.9805057 24.9902291,29.0856957 16.6560426,37.0988822 C8.32285685,29.0860331 -0.0113292834,15.9805057 1.1561034e-05,7.98216346 C0.00701620024,3.56802855 3.75082908,-0.00841933452 8.35721324,1.48883975e-05 C12.5046268,0.00777437348 14.5880066,1.98779255 16.6560429,5.94175625 Z" id="Shape"></path>
                            </g>
                            <g id="Heart-Copy-5" transform="translate(40.746872, 23.641445)">
                                <path d="M16.6560429,5.94175625 C18.7240793,1.98745518 20.8074591,0.00777437348 24.9538719,1.48883975e-05 C29.5602561,-0.00841933452 33.3044025,3.56769118 33.3130749,7.98216346 C33.3240822,15.9805057 24.9902291,29.0856957 16.6560426,37.0988822 C8.32285685,29.0860331 -0.0113292834,15.9805057 1.15610345e-05,7.98216346 C0.00701620024,3.56802855 3.75082908,-0.00841933452 8.35721324,1.48883975e-05 C12.5046268,0.00777437348 14.5880066,1.98779255 16.6560429,5.94175625 Z" id="Shape"></path>
                            </g>
                            <g id="Heart-Copy-4" transform="translate(81.493744, 0.000000)">
                                <path d="M16.6560429,5.94175625 C18.7240793,1.98745518 20.8074591,0.00777437348 24.9538719,1.48883975e-05 C29.5602561,-0.00841933452 33.3044025,3.56769118 33.3130749,7.98216346 C33.3240822,15.9805057 24.9902291,29.0856957 16.6560426,37.0988822 C8.32285685,29.0860331 -0.0113292834,15.9805057 1.1561034e-05,7.98216346 C0.00701620024,3.56802855 3.75082908,-0.00841933452 8.35721324,1.48883975e-05 C12.5046268,0.00777437348 14.5880066,1.98779255 16.6560429,5.94175625 Z" id="Shape"></path>
                            </g>
                        </g>
                        <g id="Heart-+-10">
                            <g id="Heart" transform="translate(4.001925, 25.823732)" sketch:type="MSShapeGroup">
                                <path d="M4.08776734,7.27501243e-06 C6.11639352,0.00379884159 7.135438,0.971307721 8.14697752,2.90335817 C9.15851703,0.971142871 10.1775615,0.00379884159 12.2056982,7.27501243e-06 C14.4588209,-0.00411399301 16.2901969,1.74330365 16.2944388,3.90037533 C16.2998228,7.80865621 12.2234818,11.7241905 8.14697752,15.6397248 C4.07096274,11.7243554 -0.00554149731,7.80865621 5.65485361e-06,3.90037533 C0.00343183707,1.7434685 1.83464466,-0.00411399301 4.08776734,7.27501243e-06 L4.08776734,7.27501243e-06 Z" id="Shape"></path>
                            </g>
                            <text id="10" sketch:type="MSTextLayer" font-family="SF UI Text" font-size="21.8003475" font-weight="normal" sketch:alignment="middle">
                                <tspan x="0.0570979663" y="21">10</tspan>
                            </text>
                        </g>
                        <g id="Heart-+-10-Copy" transform="translate(178.631376, 300.428203) rotate(180.000000) translate(-178.631376, -300.428203) translate(166.625602, 279.696475)">
                            <g id="Heart" transform="translate(4.001925, 25.823732)" sketch:type="MSShapeGroup">
                                <path d="M4.08776734,7.27501243e-06 C6.11639352,0.00379884159 7.135438,0.971307721 8.14697752,2.90335817 C9.15851703,0.971142871 10.1775615,0.00379884159 12.2056982,7.27501243e-06 C14.4588209,-0.00411399301 16.2901969,1.74330365 16.2944388,3.90037533 C16.2998228,7.80865621 12.2234818,11.7241905 8.14697752,15.6397248 C4.07096274,11.7243554 -0.00554149731,7.80865621 5.65485361e-06,3.90037533 C0.00343183707,1.7434685 1.83464466,-0.00411399301 4.08776734,7.27501243e-06 L4.08776734,7.27501243e-06 Z" id="Shape"></path>
                            </g>
                            <text id="10" sketch:type="MSTextLayer" font-family="SF UI Text" font-size="21.8003475" font-weight="normal" sketch:alignment="middle">
                                <tspan x="0.0570979663" y="21">10</tspan>
                            </text>
                        </g>
                    </g>
                </g>
            </g>
        </g>
    </g>
</svg>